HIERARCHY
ROOT Hips
{
	OFFSET 0.00000 0.00000 0.00000
	CHANNELS 6 Xposition Yposition Zposition Zrotation Yrotation Xrotation 
	JOINT LHipJoint
	{
		OFFSET 0 0 0
		CHANNELS 3 Zrotation Yrotation Xrotation
		JOINT LeftUpLeg
		{
			OFFSET 1.75344 -1.53157 0.77399
			CHANNELS 3 Zrotation Yrotation Xrotation
			JOINT LeftLeg
			{
				OFFSET 2.25415 -6.19323 0.00000
				CHANNELS 3 Zrotation Yrotation Xrotation
				JOINT LeftFoot
				{
					OFFSET 2.30342 -6.32861 0.00000
					CHANNELS 3 Zrotation Yrotation Xrotation
					JOINT LeftToeBase
					{
						OFFSET 0.10958 -0.30108 1.49206
						CHANNELS 3 Zrotation Yrotation Xrotation
						End Site
						{
							OFFSET 0.00000 -0.00000 0.77783
						}
					}
				}
			}
		}
	}
	JOINT RHipJoint
	{
		OFFSET 0 0 0
		CHANNELS 3 Zrotation Yrotation Xrotation
		JOINT RightUpLeg
		{
			OFFSET -1.81912 -1.53156 0.77399
			CHANNELS 3 Zrotation Yrotation Xrotation
			JOINT RightLeg
			{
				OFFSET -2.22882 -6.12365 0.00000
				CHANNELS 3 Zrotation Yrotation Xrotation
				JOINT RightFoot
				{
					OFFSET -2.21943 -6.09785 0.00000
					CHANNELS 3 Zrotation Yrotation Xrotation
					JOINT RightToeBase
					{
						OFFSET -0.18931 -0.52012 1.59379
						CHANNELS 3 Zrotation Yrotation Xrotation
						End Site
						{
							OFFSET -0.00000 -0.00000 0.84686
						}
					}
				}
			}
		}
	}
	JOINT LowerBack
	{
		OFFSET 0 0 0
		CHANNELS 3 Zrotation Yrotation Xrotation
		JOINT Spine
		{
			OFFSET -0.00200 1.66634 -0.14248
			CHANNELS 3 Zrotation Yrotation Xrotation
			JOINT Spine1
			{
				OFFSET -0.00875 1.64542 0.09514
				CHANNELS 3 Zrotation Yrotation Xrotation
				JOINT Neck
				{
					OFFSET 0 0 0
					CHANNELS 3 Zrotation Yrotation Xrotation
					JOINT Neck1
					{
						OFFSET 0.02257 1.59605 0.00839
						CHANNELS 3 Zrotation Yrotation Xrotation
						JOINT Head
						{
							OFFSET -0.10214 1.57530 -0.23335
							CHANNELS 3 Zrotation Yrotation Xrotation
							End Site
							{
								OFFSET -0.03588 1.60717 -0.08062
							}
						}
					}
				}
				JOINT LeftShoulder
				{
					OFFSET 0 0 0
					CHANNELS 3 Zrotation Yrotation Xrotation
					JOINT LeftArm
					{
						OFFSET 2.54983 1.10186 0.40078
						CHANNELS 3 Zrotation Yrotation Xrotation
						JOINT LeftForeArm
						{
							OFFSET 4.28840 -0.00000 0.00000
							CHANNELS 3 Zrotation Yrotation Xrotation
							JOINT LeftHand
							{
								OFFSET 3.06552 -0.00000 -0.00000
								CHANNELS 3 Zrotation Yrotation Xrotation
								JOINT LeftFingerBase
								{
									OFFSET 0 0 0
									CHANNELS 3 Zrotation Yrotation Xrotation
									JOINT LeftHandIndex1
									{
										OFFSET 0.75304 -0.00000 0.00000
										CHANNELS 3 Zrotation Yrotation Xrotation
										End Site
										{
											OFFSET 0.60712 -0.00000 0.00000
										}
									}
								}
								JOINT LThumb
								{
									OFFSET 0 0 0
									CHANNELS 3 Zrotation Yrotation Xrotation
									End Site
									{
										OFFSET 0.61639 -0.00000 0.61639
									}
								}
							}
						}
					}
				}
				JOINT RightShoulder
				{
					OFFSET 0 0 0
					CHANNELS 3 Zrotation Yrotation Xrotation
					JOINT RightArm
					{
						OFFSET -2.60909 1.35448 0.21802
						CHANNELS 3 Zrotation Yrotation Xrotation
						JOINT RightForeArm
						{
							OFFSET -4.52172 -0.00000 -0.00000
							CHANNELS 3 Zrotation Yrotation Xrotation
							JOINT RightHand
							{
								OFFSET -2.89140 -0.00000 0.00000
								CHANNELS 3 Zrotation Yrotation Xrotation
								JOINT RightFingerBase
								{
									OFFSET 0 0 0
									CHANNELS 3 Zrotation Yrotation Xrotation
									JOINT RightHandIndex1
									{
										OFFSET -0.68054 -0.00000 0.00000
										CHANNELS 3 Zrotation Yrotation Xrotation
										End Site
										{
											OFFSET -0.54867 -0.00000 0.00000
										}
									}
								}
								JOINT RThumb
								{
									OFFSET 0 0 0
									CHANNELS 3 Zrotation Yrotation Xrotation
									End Site
									{
										OFFSET -0.55705 -0.00000 0.55705
									}
								}
							}
						}
					}
				}
			}
		}
	}
}
MOTION
Frames: 15
Frame Time: .0083333
9.1978 13.4402 19.1336 -179.2800 -5.8579 -144.5990 0.0000 0.0000 0.0000 -12.9923 -15.1448 -59.9956 16.3006 19.6687 79.1260 3.2567 -3.0283 -33.4716 2.5311 -9.8943 -28.6351 0.0000 0.0000 0.0000 22.4018 15.8881 -53.1672 -15.0119 -19.3927 75.2726 -2.4172 -11.0474 -34.9424 -0.0526 1.4802 -4.0713 0.6907 2.2186 31.7429 0.8797 2.4715 2.4245 -0.3381 0.7655 -13.8342 -9.9460 -4.4104 -11.5996 8.9379 -6.8708 -21.4782 4.5424 -4.4442 -3.9845 0.0000 -0.0000 0.0000 -29.2870 -75.4196 -10.8825 24.5119 -35.7009 -8.0033 -0.0000 0.0000 -17.7905 40.9441 -54.2220 -35.1399 -7.1250 0.0000 -0.0000 -3.2289 -31.3881 4.4422 0.0000 -0.0000 0.0000 27.8161 55.9706 2.6135 -34.4946 44.4478 -14.4583 0.0000 -0.0000 -5.3220 -26.2505 -55.3239 22.0756 7.1250 -0.0000 -0.0000 79.1823 -81.6946 -70.8297
9.1931 13.5095 18.9721 -179.6770 -5.9427 -145.1320 0.0000 0.0000 0.0000 -13.6973 -15.1086 -57.9588 15.9259 19.5973 78.0108 3.1754 -3.2664 -32.9832 2.7064 -10.2038 -29.6394 0.0000 0.0000 0.0000 22.3852 15.2905 -51.2482 -14.5860 -19.2822 73.9863 -2.3049 -10.9941 -34.2890 -0.0519 1.4703 -4.0439 0.5515 2.1478 31.0241 0.7914 2.3479 2.3967 -0.2981 0.7349 -13.5574 -9.8415 -4.5805 -12.2918 8.6015 -7.0858 -20.8099 4.3604 -4.5190 -3.6790 0.0000 -0.0000 0.0000 -9.6966 -77.2224 -29.4159 25.2033 -36.4111 -8.4103 -0.0000 0.0000 -19.1395 40.9743 -54.4226 -35.2365 -7.1250 0.0000 -0.0000 -3.3164 -31.5725 4.5663 0.0000 -0.0000 0.0000 20.9005 57.7595 -4.3201 -35.9345 45.4680 -15.4758 0.0000 -0.0000 -7.4088 -27.7631 -54.2797 23.1412 7.1250 -0.0000 -0.0000 72.8984 -82.3166 -65.3498
9.1897 13.5764 18.7997 -179.9070 -5.8886 -145.5250 0.0000 0.0000 0.0000 -14.3376 -14.8105 -56.0860 15.5243 19.5128 76.8109 3.0934 -3.0858 -32.5747 3.0836 -10.8291 -31.7056 0.0000 0.0000 0.0000 22.4854 14.8822 -49.3868 -14.1344 -19.1543 72.6144 -2.1376 -11.2170 -33.4978 -0.1009 2.0486 -5.6401 0.3304 2.1162 30.0637 0.7357 2.2658 2.3385 -0.1921 0.7333 -13.2090 -9.7704 -4.6543 -12.9326 8.2004 -7.1754 -20.1484 4.1712 -4.5285 -3.3993 -0.0000 0.0000 0.0000 12.3197 -77.1130 -50.3931 25.9220 -37.1316 -8.8405 -0.0000 0.0000 -20.0579 38.5528 -53.2000 -32.5434 -7.1250 0.0000 -0.0000 -3.6459 -29.6006 4.9772 -0.0000 0.0000 0.0000 13.9695 59.0706 -11.1345 -37.5671 46.5606 -16.6505 0.0000 -0.0000 -8.9035 -28.6047 -53.2955 23.6151 7.1250 -0.0000 -0.0000 65.9233 -82.5831 -58.9273
9.1844 13.6574 18.6106 -180.0420 -5.8559 -145.9000 0.0000 0.0000 0.0000 -14.8134 -14.4277 -54.3008 15.0514 19.4025 75.3915 2.9811 -3.1552 -31.9387 3.3082 -11.1781 -32.8827 0.0000 0.0000 0.0000 22.7326 14.4173 -47.4652 -13.6434 -19.0023 71.1124 -1.9406 -11.2558 -32.3767 -0.0933 1.9695 -5.4215 0.1708 2.0696 29.0601 0.7100 2.1996 2.5888 -0.0833 0.7408 -13.2498 -9.8402 -4.7471 -13.3843 7.9342 -7.2636 -19.5617 4.0571 -4.5341 -3.1599 -0.0000 -0.0000 0.0000 28.8044 -75.4805 -65.8348 26.9989 -38.1781 -9.4984 -0.0000 0.0000 -20.8600 40.8994 -54.7995 -35.2914 -7.1250 0.0000 -0.0000 -3.5302 -31.8681 4.8672 -0.0000 -0.0000 0.0000 5.3415 59.9918 -18.9243 -38.6713 47.2627 -17.4570 0.0000 -0.0000 -10.8804 -29.2431 -53.3499 24.1887 7.1250 -0.0000 -0.0000 66.6603 -82.8665 -59.9076
9.1735 13.7483 18.4050 -180.2630 -5.9666 -146.2660 0.0000 0.0000 0.0000 -15.3855 -14.1187 -52.3013 14.5206 19.2644 73.7884 2.7355 -2.4744 -30.6911 3.5159 -11.4867 -33.9395 0.0000 0.0000 0.0000 22.9622 13.6770 -45.6054 -13.1112 -18.8219 69.4706 -1.7846 -11.2460 -31.4253 -0.0840 1.8696 -5.1455 0.2311 1.9640 28.2395 0.6402 2.1289 2.3765 -0.1606 0.7290 -13.0610 -10.0221 -4.9198 -13.7933 7.8429 -7.4271 -19.0379 4.0168 -4.5785 -2.9279 -0.0000 -0.0000 0.0000 38.2646 -73.4143 -74.3142 29.0126 -40.0319 -10.7688 -0.0000 0.0000 -21.7735 40.2382 -54.0577 -34.4150 -7.1250 0.0000 -0.0000 -3.4107 -30.9788 4.6846 -0.0000 -0.0000 0.0000 -1.4697 59.9449 -25.2814 -40.6592 48.4556 -18.9311 0.0000 -0.0000 -12.1745 -29.5364 -53.0775 24.3695 7.1250 -0.0000 -0.0000 64.6200 -82.9544 -58.0492
9.1601 13.8474 18.1804 -180.4710 -6.0759 -146.7240 0.0000 0.0000 0.0000 -16.0297 -13.6584 -49.9650 13.9180 19.0890 71.9539 2.2560 -0.9901 -28.1600 3.0245 -10.7346 -31.3899 0.0000 0.0000 0.0000 23.2196 12.8117 -43.6140 -12.5028 -18.5952 67.5739 -1.5752 -11.5689 -30.3526 -0.1111 2.1487 -5.9169 0.2689 1.8449 27.6319 0.5653 2.0379 2.0732 -0.2293 0.7084 -13.0892 -9.9360 -4.9835 -14.0329 7.5338 -7.5133 -18.6273 3.8794 -4.5978 -2.7814 -0.0000 -0.0000 0.0000 45.3883 -71.3574 -80.9185 31.0249 -41.7558 -12.0864 -0.0000 0.0000 -21.6179 39.4774 -55.5065 -34.1712 -7.1250 0.0000 -0.0000 -4.3938 -31.9484 6.0634 -0.0000 -0.0000 0.0000 -8.0604 59.5696 -31.3041 -42.4750 49.4698 -20.3009 0.0000 -0.0000 -13.3630 -29.2499 -52.2484 23.8836 7.1250 -0.0000 -0.0000 58.0809 -82.6423 -51.5902
9.1457 13.9492 17.9356 -180.6420 -6.0846 -147.4130 0.0000 0.0000 0.0000 -16.6847 -12.9631 -47.2355 13.2590 18.8737 69.9280 2.0545 -1.6033 -26.6785 2.5771 -9.9768 -28.9015 0.0000 0.0000 0.0000 23.6150 11.7129 -41.0863 -11.8088 -18.3087 65.3815 -1.3052 -11.8957 -28.8249 -0.1081 2.1198 -5.8368 0.1643 1.8363 26.8313 0.5881 2.0067 2.1384 -0.1147 0.7112 -12.5892 -10.0649 -4.9352 -14.0336 7.3973 -7.5182 -18.9374 3.8724 -4.6132 -2.8829 0.0000 0.0000 0.0000 44.8397 -70.2377 -80.8983 35.5313 -45.1878 -15.1890 -0.0000 0.0000 -20.1900 36.3272 -55.4751 -31.2076 -7.1250 0.0000 -0.0000 -5.5194 -30.8159 7.5884 0.0000 0.0000 0.0000 -15.2992 58.7572 -38.0325 -44.4197 50.4810 -21.7902 0.0000 -0.0000 -14.1824 -27.1081 -51.1348 21.7313 7.1250 -0.0000 -0.0000 51.1712 -81.2868 -44.0206
9.1311 14.0540 17.6751 -180.7370 -6.0688 -148.1440 0.0000 0.0000 0.0000 -17.2617 -12.1217 -44.4624 12.5490 18.6132 67.7188 1.8202 -1.7557 -25.0302 2.6844 -10.1657 -29.5150 0.0000 0.0000 0.0000 24.1482 10.4016 -38.2736 -11.0238 -17.9467 62.8588 -0.9863 -12.2837 -26.8817 -0.1216 2.2480 -6.1916 0.1432 1.7589 26.4462 0.5131 1.9568 1.7305 -0.1716 0.7116 -12.8555 -10.2682 -4.8291 -13.2166 7.5543 -7.3543 -19.1188 3.9918 -4.4988 -3.0520 -0.0000 0.0000 0.0000 49.2854 -67.8034 -84.1837 37.4660 -46.4948 -16.5772 -0.0000 0.0000 -20.1608 40.1588 -56.4697 -35.1231 -7.1250 0.0000 -0.0000 -4.6366 -33.0141 6.4257 -0.0000 0.0000 0.0000 -20.1789 57.8776 -42.4950 -46.4253 51.4479 -23.3482 0.0000 -0.0000 -14.8510 -26.1016 -50.3447 20.6662 7.1250 -0.0000 -0.0000 47.3316 -80.4784 -39.8966
9.1146 14.1655 17.4037 -180.7580 -5.9427 -148.7500 0.0000 0.0000 0.0000 -17.8549 -11.0348 -41.8580 11.7830 18.2974 65.2993 1.5731 -1.2665 -23.3514 3.3004 -11.1661 -32.8421 0.0000 0.0000 0.0000 24.5985 9.1257 -35.5916 -10.1902 -17.5154 60.1222 -0.7208 -12.4234 -24.9319 -0.1537 2.5261 -6.9622 0.0233 1.7936 26.3791 0.4497 2.0647 0.9368 -0.2322 0.7990 -13.7534 -10.1381 -4.7785 -12.5027 7.3068 -7.2437 -18.6570 3.8985 -4.3768 -3.0358 0.0000 0.0000 0.0000 51.6561 -65.9350 -85.6588 38.6723 -47.2633 -17.4577 -0.0000 0.0000 -19.3738 41.6901 -56.6804 -36.6585 -7.1250 0.0000 -0.0000 -4.2170 -33.7527 5.8577 0.0000 0.0000 0.0000 -23.7210 56.8486 -45.6057 -48.2566 52.2677 -24.7885 0.0000 -0.0000 -15.1759 -24.7685 -49.4031 19.3075 7.1250 -0.0000 -0.0000 43.7996 -79.3999 -35.9320
9.0900 14.2882 17.1134 -181.0450 -6.1176 -149.7600 0.0000 0.0000 0.0000 -18.6243 -10.0461 -38.5082 10.9248 17.8981 62.5370 1.3352 -1.4905 -21.4119 2.8635 -10.4708 -30.5151 0.0000 0.0000 0.0000 24.8983 7.1365 -32.5078 -9.3107 -17.0035 57.1585 -0.5582 -12.0892 -23.1953 -0.1157 2.1929 -6.0391 0.0693 1.6820 25.7539 0.3580 1.9278 0.9760 -0.2992 0.7386 -13.3578 -9.9170 -4.6838 -12.2213 7.0852 -7.1678 -18.6873 3.8065 -4.3334 -3.1094 0.0000 -0.0000 0.0000 56.9065 -63.3218 -90.7914 39.0991 -47.5270 -17.7719 -0.0000 0.0000 -18.3814 40.8439 -56.1903 -35.6904 -7.1250 0.0000 -0.0000 -4.2539 -33.0292 5.8940 0.0000 -0.0000 0.0000 -28.3847 55.4192 -50.1805 -49.9882 52.9908 -26.1648 0.0000 -0.0000 -15.2023 -23.7501 -48.3210 18.1925 7.1250 -0.0000 -0.0000 40.2124 -78.3226 -32.0488
9.0663 14.4137 16.8065 -181.2200 -6.0768 -150.5630 0.0000 0.0000 0.0000 -19.2410 -8.8283 -35.2828 10.0096 17.4152 59.5204 1.0628 -1.5447 -19.0313 2.3955 -9.6454 -27.8359 0.0000 0.0000 0.0000 25.0719 5.3892 -29.5745 -8.4039 -16.4084 54.0047 -0.3416 -11.9647 -20.9912 -0.0726 1.7378 -4.7815 -0.1114 1.7029 25.2279 0.3260 1.9472 0.6593 -0.2355 0.7771 -13.4443 -10.0090 -4.7533 -12.3116 6.9927 -7.1630 -18.0311 3.7626 -4.2789 -2.8967 -0.0000 0.0000 0.0000 59.4934 -61.1321 -92.7880 39.3596 -47.6859 -17.9642 -0.0000 0.0000 -18.3242 39.4988 -56.2858 -34.4372 -7.1250 0.0000 -0.0000 -4.7740 -32.6208 6.6073 -0.0000 0.0000 0.0000 -31.4479 53.8874 -52.7434 -52.0171 53.7773 -27.7933 0.0000 -0.0000 -15.4838 -23.2593 -46.9837 17.4465 7.1250 -0.0000 -0.0000 35.9002 -77.2340 -27.7133
9.0402 14.5432 16.4841 -181.3640 -6.0729 -151.3910 0.0000 0.0000 0.0000 -19.7693 -7.4674 -31.9085 9.0314 16.8279 56.1986 0.7850 -1.6473 -16.2626 2.3309 -9.5237 -27.4478 0.0000 0.0000 0.0000 25.1884 3.5215 -26.5072 -7.4613 -15.7084 50.5982 -0.0722 -12.1370 -18.1907 -0.0514 1.4630 -4.0236 -0.2263 1.7336 24.4492 0.2817 1.9778 0.5564 -0.2164 0.8112 -13.1347 -9.8118 -4.8130 -13.0138 6.7236 -7.1618 -17.1491 3.5925 -4.2475 -2.5444 -0.0000 0.0000 0.0000 60.8914 -58.5146 -92.8166 39.5684 -47.8121 -18.1188 -0.0000 0.0000 -19.3174 38.0954 -56.7736 -33.2569 -7.1250 0.0000 -0.0000 -5.5091 -32.5412 7.6273 -0.0000 0.0000 0.0000 -34.2279 51.9700 -54.8466 -53.7445 54.3985 -29.1925 0.0000 -0.0000 -15.9701 -22.7312 -45.5728 16.6566 7.1250 -0.0000 -0.0000 32.1776 -76.0024 -23.9407
9.0162 14.6758 16.1474 -181.4160 -6.1088 -152.1620 0.0000 0.0000 0.0000 -20.0883 -6.0082 -28.5754 8.0130 16.1288 52.6095 0.4979 -1.3645 -12.9272 2.1164 -9.1044 -26.1224 0.0000 0.0000 0.0000 25.3200 1.6358 -23.3713 -6.4896 -14.8865 46.9162 0.2204 -12.5304 -14.5912 -0.0250 1.0218 -2.8087 -0.2104 1.7133 23.6910 0.1039 1.9996 0.0591 -0.4294 0.8393 -13.2831 -9.1449 -4.7550 -12.6607 6.2913 -7.0610 -16.0214 3.6049 -4.1282 -2.5766 -0.0000 -0.0000 0.0000 60.6672 -56.3888 -90.1137 40.3771 -48.2917 -18.7203 -0.0000 0.0000 -20.9885 37.4982 -56.8992 -32.7312 -7.1250 0.0000 -0.0000 -5.7794 -32.4435 8.0007 -0.0000 -0.0000 0.0000 -35.4523 50.2906 -55.0386 -55.1973 54.8880 -30.3773 0.0000 -0.0000 -16.6155 -22.1111 -44.4579 15.8840 7.1250 -0.0000 -0.0000 29.9733 -74.9078 -21.5719
8.9949 14.8147 15.7938 -181.3590 -6.0468 -152.7750 0.0000 0.0000 0.0000 -20.2367 -4.4324 -25.3502 6.9618 15.2996 48.7296 0.2478 -0.6908 -9.1828 2.1878 -9.2468 -26.5703 0.0000 0.0000 0.0000 25.3934 -0.0244 -20.2422 -5.5007 -13.9264 42.9434 0.4624 -13.0784 -10.5282 -0.0088 0.6063 -1.6661 -0.3446 1.6692 22.4088 0.1743 1.9647 -0.2051 -0.2364 0.8587 -12.8742 -9.3008 -4.7810 -13.5897 6.3977 -6.8601 -14.6328 3.5871 -3.9641 -1.9419 0.0000 -0.0000 0.0000 60.4542 -54.0929 -88.3608 40.6401 -48.4446 -18.9168 -0.0000 0.0000 -21.7814 36.8347 -57.2468 -32.2089 -7.1250 0.0000 -0.0000 -6.1806 -32.5160 8.5620 0.0000 -0.0000 0.0000 -37.4851 48.5739 -55.5951 -56.3571 55.2584 -31.3282 0.0000 -0.0000 -17.4918 -21.3034 -43.8063 15.1061 7.1250 -0.0000 -0.0000 29.4045 -74.0913 -20.6516
8.9716 14.9544 15.4269 -181.4020 -5.9755 -153.5010 0.0000 0.0000 0.0000 -20.4096 -2.8809 -21.7471 5.8984 14.3292 44.5727 0.1035 -0.9930 -5.8073 2.4700 -9.7831 -28.2773 0.0000 0.0000 0.0000 25.2259 -1.5372 -16.7542 -4.5245 -12.8274 38.7259 0.6143 -13.7894 -6.5379 -0.0081 0.5818 -1.5989 -0.4620 1.7244 21.1233 0.1496 2.0769 -0.8074 -0.2153 0.9468 -12.8423 -9.2963 -4.8250 -12.4370 6.4599 -6.7664 -13.7492 3.6154 -3.8229 -1.8245 0.0000 -0.0000 0.0000 60.0290 -52.7727 -86.2727 40.9407 -48.6175 -19.1421 -0.0000 0.0000 -22.5258 36.6427 -57.7142 -32.1627 -7.1250 0.0000 -0.0000 -6.4764 -32.8502 8.9857 0.0000 -0.0000 0.0000 -38.1731 46.9165 -54.5033 -56.5861 55.3294 -31.5165 0.0000 -0.0000 -18.5439 -19.8224 -42.9835 13.8073 7.1250 -0.0000 -0.0000 29.3895 -72.8947 -19.9067
